<?xml version="1.0" encoding="UTF-8" standalone="no"?>
<!-- Created with Inkscape (http://www.inkscape.org/) -->

<svg
   version="1.1"
   id="svg1"
   width="245.66681"
   height="245.66681"
   viewBox="0 0 245.66681 245.66681"
   sodipodi:docname="upload_k553qx5kkhde5kz5eukdmbicc2.pdf"
   xmlns:inkscape="http://www.inkscape.org/namespaces/inkscape"
   xmlns:sodipodi="http://sodipodi.sourceforge.net/DTD/sodipodi-0.dtd"
   xmlns="http://www.w3.org/2000/svg"
   xmlns:svg="http://www.w3.org/2000/svg">
  <defs
     id="defs1">
    <clipPath
       clipPathUnits="userSpaceOnUse"
       id="clipPath2">
      <path
         d="M 0,201.258 H 201.258 V 0 H 0 Z"
         transform="translate(-100.9083,-161.3777)"
         id="path2" />
    </clipPath>
    <clipPath
       clipPathUnits="userSpaceOnUse"
       id="clipPath4">
      <path
         d="M 0,201.258 H 201.258 V 0 H 0 Z"
         transform="translate(-86.730505,-135.8659)"
         id="path4" />
    </clipPath>
    <clipPath
       clipPathUnits="userSpaceOnUse"
       id="clipPath6">
      <path
         d="M 0,201.258 H 201.258 V 0 H 0 Z"
         transform="translate(-113.65971,-135.8659)"
         id="path6" />
    </clipPath>
    <clipPath
       clipPathUnits="userSpaceOnUse"
       id="clipPath8">
      <path
         d="M 0,201.258 H 201.258 V 0 H 0 Z"
         transform="translate(-140.5888,-135.845)"
         id="path8" />
    </clipPath>
  </defs>
  <sodipodi:namedview
     id="namedview1"
     pagecolor="#ffffff"
     bordercolor="#000000"
     borderopacity="0.25"
     inkscape:showpageshadow="2"
     inkscape:pageopacity="0.0"
     inkscape:pagecheckerboard="0"
     inkscape:deskcolor="#d1d1d1">
    <inkscape:page
       x="0"
       y="0"
       inkscape:label="1"
       id="page1"
       width="245.66681"
       height="245.66681"
       margin="33.756546 9.0813332 34.274666 9.814147"
       bleed="11.33852 11.338667 11.338667 11.33852" />
  </sodipodi:namedview>
  <g
     id="layer-MC0"
     inkscape:groupmode="layer"
     inkscape:label="图层 1">
    <path
       id="path1"
       d="m 0,0 c -43.838,0 -79.375,-27.308 -79.375,-60.943 0,-33.66 35.537,-60.947 79.375,-60.947 43.831,0 79.366,27.287 79.366,60.947 C 79.366,-27.308 43.831,0 0,0 m 85.035,-60.943 c 0,-36.776 -38.081,-66.613 -85.035,-66.613 -46.954,0 -85.044,29.837 -85.044,66.613 0,36.776 38.09,66.613 85.044,66.613 46.954,0 85.035,-29.837 85.035,-66.613"
       style="fill:#231f20;fill-opacity:1;fill-rule:nonzero;stroke:none"
       transform="matrix(1.3333333,0,0,-1.3333333,123.20588,41.835213)"
       clip-path="url(#clipPath2)" />
    <path
       id="path3"
       d="m 0,0 c -20.052,0 -35.615,-15.795 -35.615,-35.431 0,-20.429 17.62,-35.411 35.615,-35.411 v 11.03 c -12.107,0 -24.394,9.635 -24.415,24.381 -0.056,16.654 13.617,24.491 24.415,24.491 z"
       style="fill:#231f20;fill-opacity:1;fill-rule:nonzero;stroke:none"
       transform="matrix(1.3333333,0,0,-1.3333333,104.30215,75.850947)"
       clip-path="url(#clipPath4)" />
    <path
       id="path5"
       d="m 0,0 c -20.052,0 -35.615,-15.795 -35.615,-35.431 0,-20.429 17.6,-35.411 35.615,-35.411 v 11.03 c -12.086,0 -24.394,9.635 -24.429,24.381 -0.048,16.654 13.631,24.491 24.429,24.491 z"
       style="fill:#231f20;fill-opacity:1;fill-rule:nonzero;stroke:none"
       transform="matrix(1.3333333,0,0,-1.3333333,140.20775,75.850947)"
       clip-path="url(#clipPath6)" />
    <path
       id="path7"
       d="m 0,0 c -20.052,0 -35.615,-15.802 -35.615,-35.411 0,-20.456 17.62,-35.434 35.615,-35.434 v 11.051 c -12.107,0 -24.394,9.631 -24.436,24.383 -0.035,16.651 13.638,24.492 24.436,24.492 z"
       style="fill:#231f20;fill-opacity:1;fill-rule:nonzero;stroke:none"
       transform="matrix(1.3333333,0,0,-1.3333333,176.11321,75.878813)"
       clip-path="url(#clipPath8)" />
  </g>
</svg>
