<?xml version="1.0" standalone="no"?><!DOCTYPE svg PUBLIC "-//W3C//DTD SVG 1.1//EN" "http://www.w3.org/Graphics/SVG/1.1/DTD/svg11.dtd"><svg t="1771051428612" class="icon" viewBox="0 0 1167 1024" version="1.1" xmlns="http://www.w3.org/2000/svg" p-id="3231" xmlns:xlink="http://www.w3.org/1999/xlink" width="291.75" height="256"><path d="M433.46232 468.672011c42.507037-70.054516 252.670586-64.581507 252.670586-64.581507 60.932834-5.473009 142.115803-57.101728 142.115802-57.101728L632.67985 0 343.15767 450.063781l71.878852 46.155709 18.425798-27.547479zM752.721183 697.991092l414.489221 257.048994L935.884554 533.071085l-52.905755 23.351505c0 0.182434-38.12863 78.811331-130.257616 141.568502zM567.186175 869.47871s-53.817923-63.669339-89.392482 20.250134c0 0-18.06093 12.04062-14.229823-4.195974 0 0-4.195974-44.14894 18.790664-77.351862l98.696597-116.757527-114.38589-72.426153-53.453055 70.054516-16.05416 111.649385s26.635311 43.419205 26.635311 57.649029c0 0-3.648673 75.162658-25.358276 88.115447l-44.69624-98.149297-31.561019 3.101372-29.189382-167.291644 79.723499-125.149475-67.865313-40.500267-2.371637 8.209514L0 1022.722965l1114.30465 1.277035-432.915019-269.454481-114.203456 114.933191z m-209.251381 56.554427c-12.770355 2.189204-10.946018-10.763585-16.05416-26.452877-4.925708-15.506859 3.283805-30.831285 3.283806-30.831284 9.486549-0.364867 20.979868 24.446107 20.979868 24.446107s4.378407 30.466417-8.209514 32.838054z m169.115981-239.170497l-7.662213 13.135222-0.912168 13.135222s11.310885 16.601461 0 17.513629c-11.310885 0.912168-11.675753-10.763585-15.141992-18.425797-3.466239-7.662213 0-21.527169 0-21.527169l-1.459469-1.277036c17.878496-9.304115 25.175842-2.554071 25.175842-2.554071z m-42.507037-22.256903c8.574381 4.925708 2.736505 26.635311 0 27.912346-2.736505 1.277035-7.662213-5.290575-8.939248-12.223054-1.277035-7.114912 8.939248-15.689293 8.939248-15.689292z m-34.662391 122.048102c5.108142 35.939426-5.837876 37.216462-5.837876 37.216462-12.952788 10.946018-23.351505-22.804205-23.351506-23.716373s9.121682-104.35204 9.121682-104.35204l24.08124-27.547479 2.371637 24.628541-8.02708 9.486549-3.101372 45.243542c8.02708 13.682523 4.743275 39.040798 4.743275 39.040798zM474.327454 716.416889c20.979868 2.554071 19.520399 18.608231 19.520399 18.608231l2.00677 24.446108s-15.871726 4.378407-21.527169 3.466239c-5.473009-0.912168-7.662213-15.324425-12.223054-27.000179-4.560841-11.675753 12.223054-19.520399 12.223054-19.520399z m12.04062 219.832532s1.641903-29.371815 7.479779-40.1354c0 0 18.06093-48.344914 56.554427-16.601461l1.094602 29.736683s-35.027258 54.18279-65.128808 27.000178z m120.588634-52.17602l-2.554071 43.419205c-19.520399 35.209692-43.054338 1.459469-43.054338 1.45947l14.777124-27.912347c0.364867-8.391947 21.344735-25.905576 21.344736-25.905576 11.310885-2.189204 9.486549 8.939248 9.486549 8.939248z m58.013896-17.513629c-2.918938 4.01354-8.574381 9.486549-8.574381 9.486549-5.473009 5.290575-20.615001 3.101372-20.615001 3.101372-9.851416 2.189204-16.601461-25.540709-16.601461-25.540709 4.925708-35.027258 33.202922-35.027258 33.202922-35.027258 13.864956 0 12.587921 8.574381 12.587921 8.574381s3.101372 35.392125 0 39.405665z" fill="#040000" p-id="3232"></path></svg>