<?xml version="1.0" standalone="no"?><!DOCTYPE svg PUBLIC "-//W3C//DTD SVG 1.1//EN" "http://www.w3.org/Graphics/SVG/1.1/DTD/svg11.dtd"><svg t="1771051564294" class="icon" viewBox="0 0 1478 1024" version="1.1" xmlns="http://www.w3.org/2000/svg" p-id="10953" xmlns:xlink="http://www.w3.org/1999/xlink" width="369.5" height="256"><path d="M1173.063804 596.714372c-30.385356 55.422889-89.292433 92.965685-157.058529 92.965685-98.799673 0-179.09804-80.109303-179.09804-179.09804 0-98.799673 80.109303-179.09804 179.09804-179.098041 60.419592 0 113.681745 29.872181 146.038773 75.625775h135.532192c-42.053333-114.681086-152.223881-196.464959-281.570965-196.464959-165.566428 0-299.937225 134.208741-299.937224 299.937225 0 165.566428 134.208741 299.937225 299.937224 299.937224 135.694247 0 250.375333-90.129718 287.269908-213.804869h-130.211379z m0 0" fill="#000000" p-id="10954"></path><path d="M1015.978266 888.467808c-207.808825 0-376.400285-168.591459-376.400285-376.400285 0-207.808825 168.591459-376.400285 376.400285-376.400285 125.349722 0 236.519611 61.418933 304.771872 155.735078h157.409649C1395.700683 119.191623 1219.789729 0 1015.978266 0c-256.884551 0-469.69008 189.280511-506.422599 435.982592v-3.511197H164.080922V180.097381h345.501754v-149.901089H0v987.6186h164.080922V582.345475h344.664469c34.382718 249.538048 248.376652 441.654525 507.259884 441.654525 202.812122 0 378.209902-118.003218 461.020125-289.106533H1319.129586c-68.468335 93.154749-178.800939 153.574341-303.15132 153.574341z m0 0" fill="#000000" p-id="10955"></path></svg>