<svg version="1.2" xmlns="http://www.w3.org/2000/svg" viewBox="0 0 284 256" width="284" height="256">
	<title>HighVoltageDanger</title>
	<style>
		.s0 { fill: #1f1a17 } 
	</style>
	<path class="s0" d="m141.3 101.4q0.7-0.6 1.6-0.9 0.9-0.3 1.8-0.2 1 0.1 1.8 0.5 0.8 0.5 1.4 1.2 0.6 0.7 0.9 1.6 0.3 0.9 0.2 1.8-0.1 0.9-0.5 1.8-0.5 0.8-1.2 1.4-2.1 1.6-3.9 3.6-1.8 1.9-3.1 4.2-1.3 2.3-2.2 4.9-0.8 2.5-1.1 5.1c-0.3 3 0.1 6.1 1.1 8.9q2.1 3.9 5 7.2 2.3 2.4 4.2 5.2 1.9 2.7 3.3 5.8 1.4 3.1 2.3 6.3 0.8 3.3 1 6.7c-0.2 5.9-2.1 11.6-5.5 16.4q-1.2 1.9-2.8 3.5-1.5 1.7-3.2 3.1-1.8 1.4-3.7 2.5-1.9 1.2-4 2-0.9 0.3-1.8 0.2-1 0-1.8-0.4-0.8-0.4-1.5-1.1-0.6-0.8-0.9-1.6c-0.8-2.5 0.5-5.2 3-6 3.7-1.5 6.8-4.1 9-7.5 2.4-3.4 3.7-7.4 3.9-11.6q-0.4-2.5-1.1-4.9-0.8-2.4-1.9-4.7-1.2-2.2-2.6-4.3-1.5-2-3.3-3.8-0.9-1.1-1.8-2.2-0.8-1.1-1.6-2.3-0.8-1.2-1.5-2.4-0.7-1.2-1.3-2.4-0.6-1.6-1-3.3-0.5-1.6-0.7-3.3-0.2-1.7-0.3-3.4 0-1.7 0.1-3.3 0.4-3.6 1.5-7 1.1-3.5 2.9-6.6 1.7-3.1 4.1-5.8 2.3-2.7 5.2-4.9zm-29.1 0c2-1.7 5-1.4 6.6 0.6q0.6 0.7 0.9 1.6 0.3 0.9 0.2 1.8-0.1 0.9-0.5 1.8-0.5 0.8-1.2 1.4c-5.7 4.3-9.5 10.7-10.3 17.8-0.4 3 0 6.1 1.1 8.9q2.1 3.9 4.9 7.2 2.4 2.4 4.3 5.2 1.9 2.7 3.3 5.8 1.4 3.1 2.2 6.3 0.9 3.3 1.1 6.7c-0.2 5.9-2.1 11.6-5.5 16.4q-1.3 1.9-2.8 3.5-1.5 1.7-3.2 3.1-1.8 1.4-3.7 2.5-1.9 1.2-4 2c-2.5 0.8-5.1-0.5-6-2.9-0.8-2.5 0.5-5.2 3-6 3.7-1.5 6.8-4.1 9-7.5 2.3-3.4 3.7-7.4 3.9-11.6q-0.4-2.5-1.2-4.9-0.7-2.4-1.8-4.7-1.2-2.2-2.7-4.3-1.4-2-3.2-3.8-0.9-1.1-1.8-2.2-0.8-1.1-1.6-2.3-0.8-1.2-1.5-2.4-0.7-1.2-1.3-2.4-0.6-1.6-1.1-3.3-0.4-1.6-0.6-3.3-0.3-1.7-0.3-3.4-0.1-1.6 0.1-3.3 0.4-3.6 1.5-7 1.1-3.5 2.8-6.6 1.8-3.1 4.2-5.8 2.3-2.7 5.2-4.9m-39.6 118.4c-2.6 0-4.7-2.1-4.7-4.7 0-2.6 2.1-4.7 4.7-4.7h132.9c2.6 0 4.7 2.1 4.7 4.7 0 2.6-2.1 4.7-4.7 4.7zm98.5-118.4q0.7-0.6 1.6-0.9 0.9-0.3 1.8-0.2 0.9 0.1 1.7 0.5 0.9 0.5 1.5 1.2 0.6 0.7 0.9 1.6 0.2 0.9 0.1 1.8 0 0.9-0.5 1.8-0.4 0.8-1.1 1.4-2.2 1.6-3.9 3.6-1.8 1.9-3.1 4.2-1.4 2.3-2.2 4.9-0.9 2.5-1.2 5.1c-0.3 3 0.1 6.1 1.2 8.9q2.1 3.9 4.9 7.2 2.4 2.4 4.3 5.2 1.9 2.7 3.3 5.8 1.4 3.1 2.2 6.3 0.8 3.3 1.1 6.7-0.1 2.2-0.5 4.3-0.4 2.2-1.1 4.3-0.7 2.1-1.7 4-1 2-2.2 3.8-1.3 1.9-2.8 3.5-1.5 1.7-3.3 3.1-1.7 1.4-3.6 2.5-2 1.2-4 2c-2.5 0.8-5.2-0.5-6-2.9-0.8-2.5 0.5-5.2 3-6q1.3-0.6 2.6-1.3 1.3-0.8 2.4-1.8 1.2-0.9 2.2-2 1-1.1 1.8-2.4c2.3-3.4 3.7-7.4 3.8-11.6q-0.3-2.5-1.1-4.9-0.7-2.4-1.8-4.7-1.2-2.2-2.7-4.3-1.4-2-3.2-3.8-0.9-1.1-1.8-2.2-0.8-1.1-1.6-2.3-0.8-1.1-1.5-2.4-0.7-1.2-1.3-2.4-0.6-1.6-1.1-3.2-0.4-1.7-0.6-3.4-0.3-1.6-0.3-3.3-0.1-1.7 0.1-3.4 0.4-3.6 1.5-7 1.1-3.4 2.8-6.6 1.8-3.1 4.2-5.8 2.3-2.7 5.2-4.9"/>
	<path class="s0" d="m282.5 235.9l-130.9-227.4c-2-3.4-5.7-5.5-9.6-5.5-4 0-7.6 2.1-9.6 5.5l-130.9 227.4q-0.7 1.2-1.1 2.6-0.4 1.5-0.4 2.9 0 1.5 0.4 2.9 0.3 1.4 1.1 2.7c1.9 3.4 5.6 5.5 9.6 5.5l261.8 0.1c4 0 7.6-2.1 9.6-5.6 2-3.4 2-7.6 0-11.1zm-256.1-3.4l115.6-200.6 115.6 200.7z"/>
</svg>