<?xml version="1.0" standalone="no"?><!DOCTYPE svg PUBLIC "-//W3C//DTD SVG 1.1//EN" "http://www.w3.org/Graphics/SVG/1.1/DTD/svg11.dtd"><svg t="1771051774298" class="icon" viewBox="0 0 1024 1024" version="1.1" xmlns="http://www.w3.org/2000/svg" p-id="19274" xmlns:xlink="http://www.w3.org/1999/xlink" width="256" height="256"><path d="M512 512.096m-448 0a448 448 0 1 0 896 0 448 448 0 1 0-896 0Z" fill="#ffffff" p-id="19275" data-spm-anchor-id="a313x.search_index.0.i29.1d743a81f1BUnS" class=""></path><path d="M512 992.096c-264.64 0-480-215.36-480-480s215.36-480 480-480 480 215.36 480 480-215.36 480-480 480z m0-896c-229.44 0-416 186.56-416 416s186.56 416 416 416 416-186.56 416-416-186.56-416-416-416z" fill="#2c2c2c" p-id="19276" data-spm-anchor-id="a313x.search_index.0.i32.1d743a81f1BUnS" class="selected"></path><path d="M527.68 383.456l-19.52 157.12c-2.88 9.92-8 18.24-16 24.64-8 6.4-15.68 9.6-23.36 9.6H296.96l-14.72 98.24H188.8l34.24-275.52-14.72-14.08h319.36z m-210.88 49.28l-10.24 93.12h103.36l14.72-93.12H316.8zM869.12 383.456l-14.72 117.76-29.76 19.52 24.64 19.84-14.72 98.24c-2.24 9.92-7.04 18.24-13.76 24.64-6.72 6.4-15.04 9.6-24.96 9.6h-275.52l34.24-270.4-14.72-19.52h329.28z m-235.84 161.92l-9.6 78.72h117.76l9.6-78.72h-117.76z m14.72-112.64l-5.12 63.36h113.28l9.6-63.36h-117.76z" fill="#2c2c2c" p-id="19277" data-spm-anchor-id="a313x.search_index.0.i30.1d743a81f1BUnS" class="selected"></path><path d="M164.288 213.632l45.376-45.152 660.704 663.904-45.376 45.12z" fill="#2c2c2c" p-id="19278" data-spm-anchor-id="a313x.search_index.0.i31.1d743a81f1BUnS" class="selected"></path></svg>