<?xml version="1.0" standalone="no"?><!DOCTYPE svg PUBLIC "-//W3C//DTD SVG 1.1//EN" "http://www.w3.org/Graphics/SVG/1.1/DTD/svg11.dtd"><svg t="1771051712428" class="icon" viewBox="0 0 1024 1024" version="1.1" xmlns="http://www.w3.org/2000/svg" p-id="17163" xmlns:xlink="http://www.w3.org/1999/xlink" width="256" height="256"><path d="M469.315353 641.876718l75.620477 132.371515h3.338759v-55.211455h53.543762c31.097321 0 45.330032 7.978859 59.580724-15.718352 10.49838-17.418635 18.826735-33.865199 29.443113-50.869159 7.900194-12.649301 56.377942-94.503402 58.220946-102.40472-14.646263 9.796016-11.02993 16.882591-38.482823 16.729757-20.650635-0.105636-35.449733-1.721635-55.20696-1.721635-38.770511 0-72.988578-1.718264-110.436397-1.718265l-0.824857-52.335695-74.796744 130.795972z" fill="#2c2c2c" p-id="17164" data-spm-anchor-id="a313x.search_index.0.i22.1d743a81f1BUnS" class="selected"></path><path d="M506.449636 295.740336c0 3.63319-37.272509 20.549495-41.835067 26.759519l148.226969-0.375343 75.727237-133.842548-49.962266 27.141606c-9.790397-18.542418-18.927876-35.593577-28.982362-54.68103-11.303009-21.492349-15.009245-35.796982-47.985531-35.675613-55.764357 0.211271-111.556808 0-167.315546 0 3.663532 3.185925 14.97216 7.246152 22.373394 12.685261 8.911599 6.488723 9.186925 11.925584 14.318119 20.824822 8.413763 14.660872 17.481567 30.254484 25.143519 45.123256 5.71556 11.100728 50.19826 87.25725 50.19826 92.037822z" fill="#2c2c2c" p-id="17165" data-spm-anchor-id="a313x.search_index.0.i25.1d743a81f1BUnS" class="selected"></path><path d="M173.426678 387.408434c-4.389496 18.934619-48.48112 70.321841-48.48112 86.944838v3.349997c0 9.259971 87.06733 160.797605 93.692031 165.645604-0.879922-3.750064-1.719388-3.853452-1.719388-8.362069v-13.383131c0-9.415053 81.3012-142.945189 92.365967-159.555824l45.882933 25.17948-74.589968-128.336011-154.389795 0.794514z" fill="#2c2c2c" p-id="17166" data-spm-anchor-id="a313x.search_index.0.i24.1d743a81f1BUnS" class="selected"></path><path d="M233.247891 275.674068c0-0.275327 44.455729-74.619187 49.103695-83.091387 14.059648-25.676192 29.980281-62.472217 68.033819-62.472217h15.058691c17.052282 0 47.633787 16.142018 54.143862 27.828237 9.684761 17.382674 16.932037 38.36033 26.172905 55.828413l-80.474096 142.123703c-14.40465-9.655543-132.038876-72.283966-132.038876-80.216749z" fill="#2c2c2c" p-id="17167" data-spm-anchor-id="a313x.search_index.0.i26.1d743a81f1BUnS" class="selected"></path><path d="M268.415554 563.829993l148.901239-2.472323 15.075548 0.416924v153.921177H291.871151c-31.302974 0-61.955277-36.351007-61.955277-68.621557v-18.463754c0-19.553823 34.416976-50.008341 38.478328-64.86138z" fill="#2c2c2c" p-id="17168" data-spm-anchor-id="a313x.search_index.0.i23.1d743a81f1BUnS" class="selected"></path><path d="M565.018955 401.588327l134.943855-76.328461c2.416133 8.934074 33.528064 61.234932 40.032519 71.888394 10.203949 16.727509 34.12704 52.094082 34.12704 74.619187v3.354492a70.236433 70.236433 0 0 1-19.654963 47.262939c-7.192211 7.142764-29.256565 25.570557-42.254238 24.67715l-63.555544-3.701741z" fill="#2c2c2c" p-id="17169" data-spm-anchor-id="a313x.search_index.0.i21.1d743a81f1BUnS" class="selected"></path></svg>