<?xml version="1.0" standalone="no"?><!DOCTYPE svg PUBLIC "-//W3C//DTD SVG 1.1//EN" "http://www.w3.org/Graphics/SVG/1.1/DTD/svg11.dtd"><svg t="1771051650392" class="icon" viewBox="0 0 1024 1024" version="1.1" xmlns="http://www.w3.org/2000/svg" p-id="14204" xmlns:xlink="http://www.w3.org/1999/xlink" width="256" height="256"><path d="M164 565.8s35.1-12.6 48.8-52.8c13.7-40.2 7.7-91.9-4.3-113.5-12.2-21.7-30.2-48.8-56.8-48.8H0V738h70.5V580.5h20.2s14.6 16.1 31.3 63.8c16.5 47.4 32 93.6 32 93.6h81.2s-26.1-84-34.6-103.4c-9-20.3-23.4-49.3-36.6-68.7z m-38.1-57.7H70.3v-82.7h62.5s17.4 10.1 17.4 38.2c0 28-14.6 44.5-24.3 44.5z m242.3-51.5c-52.9 0-95.9 59-95.9 141.1 0 82.4 42.9 140 95.9 140 53 0 95.9-57.7 95.9-140-0.1-82.3-42.9-141.1-95.9-141.1z m0 214.6c-11.7 0-40.8-13.2-40.8-74.3 0-61.3 28.9-73.4 40.8-73.4 11.7 0 40.8 12.2 40.8 73.4 0.1 60.8-28.8 74.3-40.8 74.3z m314.4-180.8h-85.1V353.2h-68.4V738h68.4V584.7h85.1V738h68.2V353.2h-68.2v137.2z m296.8 26.7c-39.9-34.4-78.6-21.8-90.8-47.4-12.2-25.5 2.9-46.4 12.6-50.3 9.6-3.9 39.6-8 43.9 14.5 3.7 20.2 3.3 29.9 3.3 29.9h68.6s-0.4-37.3-9.6-57.6c-9.3-20.2-27.5-54.2-81.2-58.1-53.6-3.9-78.3 21.8-89.9 43.5-11.5 21.7-20.2 79.1-0.4 123.4 19.8 44 77.7 61.8 77.7 61.8s34.4 12.8 40.6 42.2c6.2 29.4-8.6 53.1-29.4 56.8-20.9 3.6-35.6-13.7-39.6-25.5-3.9-12-3.9-44-3.9-44h-71.4s-1.5 42.4 16.1 78.2c17.5 35.9 39.2 48.8 74.3 54.2 35.1 5.3 97.1 1.5 114.5-61.8 17.4-63.6 4.3-125.4-35.4-159.8z m0 0" fill="#090103" p-id="14205"></path></svg>