<?xml version="1.0" standalone="no"?><!DOCTYPE svg PUBLIC "-//W3C//DTD SVG 1.1//EN" "http://www.w3.org/Graphics/SVG/1.1/DTD/svg11.dtd"><svg t="1771051463787" class="icon" viewBox="0 0 1024 1024" version="1.1" xmlns="http://www.w3.org/2000/svg" p-id="4441" xmlns:xlink="http://www.w3.org/1999/xlink" width="256" height="256"><path d="M690.313856 595.59237c-0.437099 1.616841 0.263108 3.025741 0.28857 4.481323 0.114579 7.460383-0.645039 14.742532-3.203975 21.863421-1.438606 3.997543-2.834776 7.944162-5.113631 11.534313-4.95237 7.808365-10.935954 14.577029-18.905578 19.503937-4.196996 2.59713-8.410967 5.071193-13.091742 6.671059-0.16126 0.055168-0.309788 0.169747-0.471048 0.203697-5.062706 0.937853-9.998102 2.673516-15.239043 2.537718-4.387961-0.106092-8.775923 0.220671-13.172372-0.471048-9.000838-1.417388-17.203865-4.642582-24.744877-9.794405-6.382489-4.362499-11.347591-10.010833-15.901056-16.121727-0.203696-0.271595-0.428611-0.568653-0.53046-0.886928-1.009995-3.216707-3.170026-3.955106-6.467363-3.950863-45.15484 0.118823-90.317743 0.08063-135.472582 0.08063-4.119761 0-4.1274 0-4.1274 4.095147v22.533923c0 0.691719 0.030979 1.383439-0.039041 2.06667-0.155319 1.659278-0.559741 2.053939-2.26188 2.219443-0.598783 0.050924-1.20478 0.038193-1.811201 0.038193-10.361785 0-20.72357 0.008487-31.085355 0-3.847741 0-3.871082-0.033949-3.871082-3.916913-0.008063-8.118153-0.030979-16.232063 0.023341-24.35446 0.015277-1.744151-0.427763-2.690491-2.207561-3.505277-4.345525-1.986041-6.887063-5.279134-7.268145-10.401251-0.256318-3.501033-0.606421-7.027528-1.111418-10.524317-0.085722-0.598358-0.179083-1.20096-0.194361-1.803563-0.14768-7.248199-1.12712-14.445475-1.84218-21.634263-0.940823-9.52281-1.655883-19.066838-2.573365-28.589648a367.421755 367.421755 0 0 1-1.290078-18.065331c-0.17102-3.59015-0.754101-7.150595-0.629761-11.440952-2.401921 1.722933-3.700062 3.645318-5.340243 5.160311-1.710202 1.578648-3.350383 3.242169-4.943883 4.935395-1.601139 1.701714-3.257022 3.33553-4.943459 4.943884-1.686861 1.608353-3.233681 3.356748-4.866224 5.020269-1.632542 1.663521-3.303702 3.288849-4.943883 4.943883-1.64782 1.65079-3.280362 3.314311-4.920543 4.969345-1.6945 1.718689-3.529041 3.310068-5.029181 5.215479-1.453459 1.841756-3.125043 3.467084-4.936244 4.926908-1.834117 1.485287-3.054598 3.513764-4.757162 5.109386-1.702139 1.582891-3.466659 3.123346-5.036819 4.833548-1.578223 1.718689-3.094065 3.484058-4.772863 5.100899-1.679223 1.616841-3.412765 3.161539-4.967223 4.909934-1.539181 1.739907-3.26466 3.318555-4.889565 4.982076-1.632118 1.663521-3.233681 3.360992-4.865799 5.016026-1.632542 1.655034-3.319404 3.271875-4.943883 4.935395-1.624479 1.663521-3.148384 3.441622-4.819544 5.054219-1.678798 1.616841-3.474722 3.106371-4.93582 4.935396-1.461522 1.824781-3.078363 3.505277-4.928181 4.935396-1.865945 1.447094-3.125043 3.441622-4.780926 5.075437-1.655458 1.633815-3.450958 3.131833-5.075862 4.786867-1.686861 1.727176-3.140321 3.662293-4.897202 5.334301-1.686861 1.599866-3.303278 3.280362-4.943459 4.935396-1.640181 1.655034-3.265085 3.327042-4.920543 4.965101-1.663521 1.642303-3.296064 3.288849-4.741884 5.130605-1.453459 1.845999-3.521403 3.055447-5.099202 4.774136-1.57016 1.718689-3.125043 3.450109-4.726182 5.14758-1.601139 1.693227-3.56002 3.008767-5.037244 4.833548-1.461098 1.820537-2.953599 3.662293-4.819119 5.045731-1.912201 1.421632-3.210341 3.365235-4.850522 4.999051-1.648244 1.646546-3.358021 3.233681-4.990564 4.897202-1.632542 1.663521-3.179362 3.403429-4.796203 5.075438-1.616841 1.672009-3.288001 3.293093-4.928182 4.95237-1.640181 1.655034-3.257022 3.327042-4.889564 4.990564-1.632118 1.655034-3.34232 3.246413-4.873438 4.990563-1.601564 1.824781-3.560445 3.263387-5.215903 5.020269a195.660646 195.660646 0 0 0-4.687565 5.168798c-1.531118 1.756882-3.668658 2.860238-5.06016 4.77838-1.368161 1.896923-3.086002 3.492546-4.749522 5.126361-1.663521 1.629572-3.272723 3.318555-4.912905 4.973589-1.640181 1.655034-3.280362 3.310068-4.951521 4.935396-1.663521 1.616841-3.132682 3.428891-4.873863 4.774136-0.963739 0.038193-1.484438-0.454073-1.927478-0.963315-2.845385-3.250656-6.110045-6.072701-9.196047-9.07298-1.935116-1.888436-1.912201-2.240661 0.023341-4.188509 3.397063-3.437378 6.856084-6.819588 10.237445-10.269697 5.371221-5.487074 10.664783-11.054777 16.051706-16.524876 10.043085-10.214529 20.140489-20.373891 30.175935-30.58842 9.490982-9.654364 18.935709-19.363896 28.419053-29.026747 3.933464-4.001787 8.076565-7.804121 11.838584-11.94595 3.599062-3.95935 7.571143-7.532526 11.170205-11.491876 3.879145-4.273382 8.123246-8.215758 12.181049-12.32788a3372.305002 3372.305002 0 0 0 15.041287-15.328159c4.881501-4.999051 9.708683-10.049026 14.691184-14.933498 4.306483-4.209727 8.146586-8.89899 12.818025-12.752248 1.912625-1.578648 3.311765-3.755654 5.099626-5.491317 5.5032-5.347032 10.649082-11.050534 16.168407-16.376348 3.847741-3.717461 7.151444-7.944162 11.286482-11.390028 2.168943-1.803563 3.731465-4.337037 5.892345-6.15333 2.992641-2.529231 5.316902-5.652577 8.122821-8.326094 0.839824-0.802055 1.018482-1.655034 0.901782-2.792339-0.497359-4.888715-0.831761-9.785918-1.344821-14.674633-0.699358-6.768664-0.987079-13.579765-1.8965-20.335698-0.435401-3.242169-0.404422-6.535262-0.6374-9.81138-0.474019-6.535262-0.995142-13.070524-1.383863-19.618517-0.201999-3.394941-0.528338-6.853538-1.10378-10.252722-0.069596-0.428611-0.14768-0.852979-0.155318-1.28159-0.070021-7.338165-1.212418-14.598672-1.865521-21.882094-0.653102-7.283422-1.08044-14.605886-2.044603-21.87403-0.691719-5.208264-0.722698-10.493763-1.336758-15.717305-0.894143-7.625887-0.653102-15.34471-1.857882-22.946832-0.404422-2.549601-0.357742-5.161584-0.48972-7.734525-0.217701-4.399419-0.90942-8.736881-1.298141-13.098107-0.381082-4.19742-0.210062-8.449584-1.189078-12.600324-0.575443-2.440963-0.420124-4.982501-0.598782-7.462081-0.311061-4.384142-0.792719-8.753007-1.220482-13.129086-0.676018-6.864147-0.987079-13.758848-1.84218-20.607293-0.46638-3.754381-0.551678-7.56308-0.76174-11.356503-0.326339-5.939025-1.134759-11.846647-1.189502-17.80095-0.007639-1.158099-0.668379-1.919839-1.422481-2.6506-7.229103-7.042381-13.851784-14.660205-20.89459-21.881669-6.374002-6.537384-12.351645-13.463488-18.788029-19.93849-9.490982-9.545726-18.507946-19.534492-27.86695-29.204133-9.545726-9.848724-18.912369-19.876532-28.302352-29.872936-5.192563-5.534603-10.688548-10.789123-15.68675-16.494746-4.267441-4.873862-8.853582-9.444302-13.268703-14.170485-4.174505-4.469864-8.418605-8.877347-12.693685-13.261489-5.114903-5.239243-10.276487-10.454721-15.134648-15.935005-3.723402-4.197845-7.641164-8.200905-11.519884-12.227305-4.252164-4.407482-8.333308-8.970283-12.600749-13.362489-7.570719-7.796482-15.009884-15.717305-22.526708-23.56853C151.517168 26.971547 151.097468 25.945426 151.097468 24.654924 151.105107 17.659224 151.081766 10.663947 151.074128 3.675037c0-0.326763 0.12434-0.653102 0.19436-1.002781 1.150036-0.326763 1.632542 0.520699 2.191859 1.10378C159.321713 9.987081 165.120697 16.244382 171.004979 22.424448c6.840382 7.174359 13.906528 14.139506 20.614507 21.438629 10.159786 11.053504 20.832208 21.617288 30.883356 32.764153 3.754381 4.158803 7.858865 8.006544 11.651862 12.133945 4.671863 5.083924 9.608108 9.903468 14.209527 15.056988 3.902485 4.368441 8.216606 8.371925 12.149645 12.717026 5.044883 5.557943 10.532805 10.688124 15.539071 16.261768 5.301201 5.907622 11.107823 11.341225 16.362768 17.264549 3.894422 4.391781 8.00612 8.573924 12.056284 12.794685 4.531822 4.726183 8.907901 9.615322 13.540723 14.256207 4.928606 4.93582 9.716746 10.012106 14.51295 15.072265 4.865799 5.130605 9.662003 10.322743 14.535865 15.44571 0.746463 0.78508 1.391502 1.756458 2.743961 2.277581 0.44304-1.624904 0.280083-3.132682 0.062382-4.625183-0.699782-4.866224-1.220481-9.747725-1.368161-14.668268-0.101-3.451382-0.76174-6.856084-1.08044-10.284126-0.388721-4.119761-0.497783-8.262863-0.870803-12.382623-0.412061-4.547524-1.041398-9.086984-1.158099-13.665487-0.039042-1.585862-0.388721-1.84218-2.16088-1.873583-3.537104-0.061958-7.081423-0.02334-10.618527-0.030979-3.19464 0-6.389279 0.039042-9.584344-0.023341-2.028902-0.038617-2.448601-0.44304-2.471941-2.463878-0.054319-5.612262-0.04668-11.224949-0.007639-16.837211 0.015702-2.168519 0.380658-2.50292 2.642962-2.526261 5.35552-0.038617 10.711464-0.093361 16.059345 0.023341 2.083221 0.04668 3.249383-0.559741 4.119761-2.588219 1.764945-4.112123 3.467084-8.301904 6.374426-11.799967 3.51334-4.236462 7.042381-8.402904 11.286482-12.041007 6.685064-5.728963 14.09325-10.159362 21.944051-13.945146 1.391502-0.668379 1.896923-1.609202 1.888861-3.039321a418.08616 418.08616 0 0 1 0.008063-8.286202c0.030979-3.249383 0.396359-3.638104 3.529041-3.645743 9.669641-0.015702 19.339707-0.015702 29.009773 0 2.634899 0 2.634899 0.030979 3.87872 2.044179 4.866224-0.746038 9.545726-2.339539 14.458206-2.681579 1.562522-0.109062 2.969725-0.831761 4.539885-0.979441 7.633101-0.707421 15.227584-1.756882 22.88445-2.363303 3.140321-0.248679 6.31162-0.605997 9.475705-0.88608 2.50292-0.217701 2.829259-0.691719 2.87594-3.303702v-0.256318c-0.077659-5.347881 0.27202-4.702842 4.64046-4.702842 31.256375-0.015702 62.51275-0.007639 93.769125-0.007639 4.15753 0 4.15753 0.007639 4.166017 4.158379 0 1.383863-0.038193 2.767301 0.025462 4.143525 0.076386 1.71784 0.394662 2.098498 2.087889 2.401921 1.009995 0.186297 2.062427 0.209638 3.09364 0.27202 2.923893 0.186297 5.830812 0.4197 8.669831 1.298141 1.133062 0.349679 2.393434 0.302999 3.573176 0.528337 7.850802 1.515841 15.548831 3.661444 23.306271 5.588922 6.654085 1.655883 12.955944 4.088782 19.25356 6.638384a99.519731 99.519731 0 0 1 24.889163 14.582969c1.81205 1.445821 3.399185 3.178938 5.075437 4.795779 0.615333 0.598783 1.150036 1.282863 2.1473 1.811201 6.76442-7.003339 14.895305-10.913463 24.906138-9.755363 6.009046 0.691719 11.216037 3.334681 15.616729 7.408186 9.374281 8.674923 11.712547 21.251908 6.441901 32.204412-5.85203 12.165347-17.543359 19.37111-35.226759 15.010308-0.364956 1.64782-1.009995 3.303702-1.026969 4.959161-0.029706 3.552382-0.458317 7.066146-0.840248 10.564208-0.411637 3.762019-0.797811 7.524463-1.120331 11.302183-0.178234 2.13754-0.050924 2.425261 2.10062 2.471942 2.418896 0.054319 4.850522-0.163382 7.243956 0.061958 2.894187 0.27202 5.054219-0.901357 6.819588-2.92262 4.888715-5.588922 10.447932-10.540444 15.451226-16.005026 3.904182-4.259802 8.326093-8.006544 12.056285-12.429729 1.158524-1.3758 2.495282-2.619622 3.963594-3.7077 1.540455-1.134759 2.541962-2.813982 3.865989-4.158803 4.349768-4.430823 8.78441-8.768284 13.142666-13.191044 4.056955-4.119761 7.961137-8.379564 12.094478-12.421665 4.073929-3.972081 7.736222-8.348585 12.035067-12.102966 1.290078-1.12712 2.376459-2.495282 3.526495-3.778145 1.324027-1.484438 2.631079-2.9693 4.239433-4.166441 1.816294-1.35246 3.085153-3.24132 4.638338-4.850523 3.717461-3.839678 7.50282-7.609761 11.241499-11.426523 4.897203-4.982501 9.616171-10.159786 14.721314-14.916947 3.857502-3.591423 7.239712-7.610185 11.09297-11.201184 3.83204-3.568083 7.337317-7.532526 11.025072-11.286907 8.105422-8.239522 16.227819-16.471406 24.328997-24.718991 5.915685-6.031962 11.805908-12.079625 17.708862-18.134927 0.543191-0.551678 1.001508-1.220481 1.935117-1.072802 0.742643 0.396359 0.70445 1.134759 0.70445 1.811202 0.008487 6.560724-0.012731 13.129086 0.016975 19.68981 0.008487 1.702139-0.793568 2.914981-1.935117 4.065442-5.431906 5.42554-10.889274 10.843442-16.244793 16.346642-14.258753 14.652991-28.585405 29.235536-42.941763 43.779464-13.393043 13.572126-26.616339 27.299571-40.102743 40.778761-4.943883 4.943459-9.675582 10.089341-14.560054 15.087543-6.093919 6.234385-12.243007 12.406388-18.366632 18.601731-6.607404 6.692702-13.214809 13.377766-19.813725 20.078107-0.483779 0.48972-0.869954 1.0571-1.438607 1.756882 1.680496 1.484862 1.531967 3.467084 1.52348 5.441242-0.016975 21.244269-0.008487 42.488962-0.008487 63.725168 0 4.601843-0.199453 4.796203-4.842035 4.796203h-37.038808c-0.691719 0-1.383439-0.007639-2.075158 0-3.38221 0.030979-3.352504 0.140041-3.607125 3.467084-0.33525 4.376079-0.352225 8.791625-1.324027 13.105746-0.076386 0.333977-0.140041 0.684081-0.131554 1.026121 0.110336 5.79856-0.653526 11.543224-1.205204 17.295528-0.602602 6.26494-0.78508 12.561282-1.803563 18.788029-0.49651 3.04696-0.347981 6.18728-0.751131 9.273282-0.632308 4.780502-1.196717 9.584343-1.421631 14.396248-0.186722 3.972081-1.018482 7.850802-1.251885 11.822883-0.203696 3.498063-0.186722 7.073784-1.183986 10.509464-0.20794 0.730761-0.16126 1.539181-0.186721 2.316623-0.131554 6.218684-1.094869 12.367346-1.44285 18.570329-0.258864 4.477503-0.615333 8.946943-1.158524 13.401106-0.802055 6.498342-1.07365 13.051427-1.930873 19.557407-0.543191 4.166442-0.636551 8.418605-1.188229 12.608387-0.572896 4.359529-0.615333 8.777196-1.196717 13.126965-0.504998 3.755654-0.869954 7.519795-1.141549 11.305154-0.356469 5.075437-1.120331 10.129656-1.290078 15.205093-0.165503 4.757161-0.802055 9.459155-1.307052 14.169636-0.373444 3.428891-0.318276 6.879-0.831761 10.30789-1.094869 7.328829-1.353733 14.75102-2.325534 22.105311-0.589871 4.511028-0.751131 9.102686-1.23491 13.64342-0.101848 0.933609 0.233402 1.68474 0.840248 2.35524 1.273103 1.408901 2.5165 2.83902 3.823552 4.213971 8.2879 8.674075 16.652187 17.263276 24.85097 26.017981 5.19426 5.542242 10.604948 10.863812 15.66341 16.516389 3.972081 4.430398 8.169077 8.644369 12.179351 13.036574 3.764141 4.124854 7.850802 7.99933 11.653136 12.102965 6.730471 7.282149 13.783461 14.246022 20.420571 21.617288 4.438886 4.926908 9.353063 9.429449 13.796193 14.339383 5.389469 5.953878 11.09297 11.589481 16.605506 17.411805 4.740187 5.016026 9.577978 9.942934 14.262996 15.00564 9.493104 10.26121 19.20688 20.301748 28.857001 30.414429 6.785639 7.112402 13.499135 14.296946 20.24658 21.439054 1.820537 1.922385 1.850243 2.177006-0.008487 3.950863-3.051203 2.915406-6.123625 5.805349-9.208778 8.682562-1.756882 1.638059-1.952091 1.663521-3.590151 0.067899-2.295829-2.223686-4.438886-4.578927-6.586185-6.942655-3.131833-3.441622-6.441901-6.730471-9.645877-10.116925-5.156067-5.448881-10.167849-11.037803-15.459714-16.350885-3.840527-3.853258-7.45614-7.901726-11.186331-11.844101-6.989335-7.383997-14.258753-14.496399-20.942543-22.168966-1.179742-1.36222-2.673516-2.448601-3.908426-3.772629-3.950863-4.209727-7.829583-8.49584-11.776203-12.705567-3.242169-3.467084-6.420683-6.997823-9.832598-10.295159-4.90569-4.740187-9.251215-10.002346-14.089006-14.814675-5.682283-5.656821-11.105701-11.572506-16.618237-17.403317-1.896923-2.007259-3.691999-4.103635-5.56346-6.132113-0.420124-0.407393-0.717181-1.005751-1.633816-1.014239z m-90.581274-319.51871c0.746887-0.683656 1.328271-1.189078 1.871461-1.733117 3.17427-3.171724 6.382489-6.304406 9.493104-9.538087 6.870512-7.159082 14.076275-13.976124 20.794015-21.29095 4.188509-4.57044 8.691049-8.876922 13.159641-13.191044 1.81205-1.749243 2.588643-3.645742 2.56318-6.179642-0.093361-12.087688-0.038193-24.174952-0.038193-36.26264 0-0.777017-0.021218-1.554459 0.016975-2.3319 0.114579-2.401921 0.700207-2.9693 3.178514-3.062661 1.120331-0.039042 2.244905 0.007639 3.365235-0.02334 2.338266-0.061958 2.35524-0.201999 2.813558-2.417623 0.91239-4.415121 0.903903-8.91554 1.36222-13.369703 0.309788-3.000704 0.984533-5.954302 1.031213-8.985985 0.063655-4.283143 0.101848-4.290781-4.171534-4.290781H371.586168c-0.777017 0-1.554459-0.031403-2.331901 0.030979-1.54682 0.131978-1.84218 0.427338-1.725478 1.919839 0.333977 4.213122 0.481657 8.457647 0.987079 12.624089 1.111419 9.164644 1.096142 18.414585 2.269942 27.571591 0.715059 5.627964 0.855101 11.325524 1.461098 16.984466 0.715059 6.677425 1.220481 13.385829 1.787861 20.078531 0.163382 1.943179 0.388721 3.847741 1.935541 5.456944 8.301904 8.643945 16.510448 17.373187 24.742331 26.087152 9.297046 9.840661 18.570328 19.697449 27.882652 29.522833 5.806623 6.125323 11.675627 12.188263 17.497952 18.305947 5.114903 5.363583 10.120744 10.828165 15.313306 16.114089 4.166442 4.236462 8.161863 8.635882 12.351645 12.857066 6.568362 6.599341 12.779407 13.548786 19.168687 20.334849 3.311765 3.51334 6.661723 6.995701 10.004467 10.478062 0.403998 0.420124 0.684081 1.026121 1.437758 1.057524 0.863164-0.225764 1.360523-0.987504 1.951242-1.585862 4.562801-4.578503 9.086984-9.211324 13.642147-13.805528 6.926104-6.980423 13.914166-13.906104 20.808868-20.917506 5.262583-5.355944 10.385125-10.843867 15.640069-16.19981 7.252443-7.384421 14.582546-14.699247 21.852388-22.068391 0.611089-0.621699 1.506505-1.142398 1.599866-2.448602-1.718689-0.3187-3.33553 0.093361-4.928606 0.093361-32.888493-0.02334-65.785049-0.015277-98.673966-0.02334-0.777442 0-1.554459-0.030979-2.324261-0.085298-1.20478-0.093361-1.904138-0.723122-1.950818-1.974583-0.02334-0.691719-0.039042-1.383439-0.039042-2.067519 0-11.224524-0.007639-22.449473 0-33.673997 0-4.096421 0.093361-4.181719 4.228824-4.181719h119.389472c3.581663 0 3.764141 0.193936 3.768385 3.83204 0.016975 5.176861-0.004244 10.361785 0.016975 15.538646 0.008487 0.847462-0.195209 1.71784 0.381931 2.82162z m-95.573112 122.973258c-3.847741 3.948741-7.415825 7.579206-10.944866 11.240226-10.952505 11.364566-22.278029 22.356537-33.176214 33.77627-13.820806 14.479424-28.271373 28.339272-42.100241 42.822939-5.954302 6.242448-12.032945 12.357586-18.134928 18.459993-1.461522 1.459825-1.982221 2.983305-1.951242 5.045731 0.070021 4.158803 0.909844 8.224245 1.220481 12.349099 0.350103 4.634095 0.521123 9.289408 1.22812 13.906528 0.29536 1.93936 0.598783 3.925401 0.61406 5.911441 0.070021 7.948406 1.321481 15.799208 1.865945 23.722152 0.598358 8.665587 0.979441 17.365124 2.13754 26.001006 0.528338 3.895695 0.995142 7.876264 0.839399 11.852588-0.02334 0.678988 0.12434 1.379195 0.264381 2.045452 0.730761 3.577419 0.7384 3.585907 4.29842 3.585907h156.678234c3.871082 0 3.956804-0.008487 3.832039-3.840527-0.232978-7.222737 0.51306-14.288459 2.892066-21.14624 2.945536-8.487353 7.227405-16.11324 13.469854-22.70367 6.607404-6.980848 14.398794-11.99263 23.25959-15.485175 3.458596-1.357976 7.125133-1.97331 10.778939-2.524988 1.353733-0.203696 1.998772-0.848735 2.185493-2.10062 0.076386-0.513485 0.157016-1.022726 0.165503-1.53621 0.106092-4.315819 0.543191-8.597689 1.150037-12.866828 0.114579-0.840248-0.038193-1.493774-0.632308-2.121838-1.646546-1.765369-3.161539-3.662293-4.888715-5.338545-4.129097-4.044224-7.740466-8.57647-12.02658-12.463678-0.572896-0.517729-1.048188-1.141549-1.544698-1.739907-3.492546-4.16729-7.532526-7.812608-11.131163-11.890782-4.103635-4.651069-8.78441-8.792898-12.888046-13.44821-5.830812-6.598917-12.17341-12.701324-18.112011-19.194149-7.338165-8.012061-14.986968-15.739796-22.472813-23.61606-8.799263-9.242727-17.567548-18.514736-26.343471-27.780379-1.002781-1.064738-1.951242-2.18422-2.891641-3.311341-2.26188-2.720621-4.951522-4.982925-7.641164-7.610185z m122.499239 102.972386c0.216428-0.063655 0.437099-0.131554 0.645039-0.19521-0.178234-2.367971 0.712938-4.61712 0.802055-6.89173 0.216428-5.784131 0.878441-11.521582 1.264615-17.288738 0.233402-3.445865 0.305545-6.904462 0.763862-10.316378 0.840248-6.242448 1.251885-12.523089 1.824781-18.778268 0.212184-2.334022 0.793568-4.604389 0.908147-6.921437 0.267352-4.990564 0.802055-9.93869 1.417388-14.899548 0.653526-5.286348 0.971802-10.618527 1.57016-15.920152 0.568653-5.03682 0.78508-10.136021 1.328271-15.188967 0.390418-3.614339 0.212184-7.260082 0.674744-10.843442 0.895416-6.848445 1.082138-13.758848 1.990284-20.591592 0.594115-4.4461 0.942096-8.915964 1.260372-13.377766 0.28857-4.042102 1.353733-7.998906 1.213692-12.079625-0.029706-0.940399 0.263108-1.881222 0.280083-2.82162 0.067899-4.057803 1.23491-7.998906 1.226422-12.064348 0-1.212418 0.24189-2.401921 0.33525-3.599062 0.263108-3.26466 0.802055-6.490703 1.094869-9.739662 0.343738-3.770082 0.271595-7.579206 0.691719-11.364566 0.632308-5.651304 1.158524-11.317885 1.510749-16.992529 0.186722-3.02362 0.916634-5.977643 0.99302-8.993624 0.118823-4.49278 0.653526-8.939305 1.362221-13.370127 0.284326-1.779798 0.479535-3.443319-1.519237-4.430823-0.602602-0.29536-0.551678-1.297716-1.536211-1.44582-3.360992 3.342744-6.980848 6.553085-10.121168 10.175487-3.6241 4.17408-8.029036 7.547803-11.534313 11.830946-1.290078 1.585862-3.280362 2.611559-4.519515 4.228399-2.953599 3.871082-6.628623 7.027104-10.01932 10.455146-4.544978 4.594204-9.047518 9.234664-13.545816 13.867486-4.146072 4.259802-8.606176 8.224245-12.438216 12.787046-0.662014 0.793143-1.374951 1.554883-2.160031 2.223262-4.269139 3.653381-7.837222 7.998481-11.817366 11.931946-6.615043 6.545022-12.934726 13.401106-19.565046 19.930851-5.153945 5.075861-10.152147 10.299403-15.19703 15.468625-5.122542 5.246882-10.315104 10.424167-15.445285 15.662985-1.18144 1.212843-2.534324 2.308984-3.389424 4.127824 36.549937 38.487175 73.099449 76.956103 109.650235 115.425031z m-230.67225-19.007427c0.894143-0.012731 1.197141-0.742643 1.663521-1.200961 8.208543-8.109666 16.285109-16.350886 24.30693-24.634542 9.538087-9.849573 19.309152-19.474231 28.940176-29.234687 4.29842-4.354436 8.472924-8.823877 12.755643-13.192742 8.884985-9.047943 17.80095-18.064906 26.701213-27.10521 0.46638-0.474443 1.166162-0.800782 1.205204-2.145603a3142351.650282 3142351.650282 0 0 1-113.816253-120.050213c-0.707421 0.396359-0.723122 0.870378-0.6374 1.266737 0.78508 3.832464 0.411637 7.750226 0.78508 11.613245 0.551678 5.752303 1.08044 11.504607 1.344821 17.272612 0.193936 4.228399 1.03376 8.363862 1.259099 12.584623 0.233402 4.376504 0.653102 8.753007 1.18144 13.113809 0.44304 3.668658 0.396359 7.431102 0.894142 11.068781 0.924697 6.848445 1.064738 13.751209 1.888861 20.591592 0.583081 4.796203 0.893718 9.607684 1.173801 14.434866 0.388721 6.630745 1.42248 13.206746 1.453459 19.868469 0.007639 0.948462-0.054319 1.927902 0.178659 2.837322 1.08044 4.306483 0.93276 8.729243 1.267162 13.098107 0.326339 4.213122 1.03376 8.371501 1.282439 12.592686 0.249104 4.290781 0.6374 8.581987 1.197141 12.863856 0.61406 4.69775 0.723122 9.446424 1.20478 14.165392 0.497783 4.888715 0.886504 9.785918 1.197141 14.691609 0.396784 6.365515 1.515841 12.675862 1.438182 19.079569-0.015702 1.205204 0.015702 2.427383 0.2177 3.615612 0.14768 0.959071 0.015702 2.092133 0.917059 2.805071z m79.015559-390.18526c-0.225339-0.04668-0.474443-0.14768-0.723123-0.14768-7.07336 0.077659-14.053783 1.173801-21.06561 1.966944-1.710202 0.193936-3.497638 0.085298-5.137819 0.528338-5.099626 1.360523-10.408465 1.197141-15.546709 2.339963-3.350383 0.753677-6.677425 1.678798-10.074064 2.215199-0.940823 0.14768-1.2748 0.792719-1.313842 1.64782a46.26838 46.26838 0 0 0-0.038617 2.067943c0 7.508761 0.007639 15.017947-0.008063 22.534771-0.007639 4.943459-0.116701 4.539461 4.477503 4.539461h228.666688c0.691719 0 1.383439 0.02334 2.066671-0.015702 0.57714-0.030979 1.23491 0.12434 1.616841-0.51306-0.606846-2.495282-4.082417-7.384421-6.344297-9.537663-4.740187-4.500843-10.125412-8.014183-15.994416-10.804825-3.411916-1.624479-6.738958-3.43568-10.426714-4.485142-3.560445-1.010419-7.048747-2.254241-10.600703-3.296063-4.366743-1.282439-8.712268-2.735898-13.176616-3.606701-3.870233-0.754101-7.702273-1.756882-11.682841-2.020839-2.283098-0.14768-4.61712-0.365381-6.879-1.072801-1.400413-0.435401-3.017254-0.59072-4.447373-0.008063-0.403149 1.049461-0.263108 2.005562-0.271595 2.946385-0.016975 3.715339 0 7.423463-0.008488 11.138802-0.008487 4.228824-0.059411 4.283143-4.39857 4.283142H500.405089c-7.167145 0-14.326227 0.015702-21.493372-0.007638-3.077939-0.007639-3.373298-0.3187-3.389-3.459021-0.02334-4.835245 0.007639-9.670066-0.015702-14.504886 0-0.901781 0.233402-1.896923-0.504997-2.728684zM631.182468 573.105129c-4.082417-0.131554-7.719248 0.411637-11.373053 1.773856-5.813837 2.160031-10.22726 5.877492-13.834385 10.75772-1.137305 1.531967-2.121838 3.140321-2.813558 4.918421-1.803563 4.651069-2.541962 9.463399-2.287341 14.436988 0.212184 4.08666 0.997264 8.113909 2.936624 11.691329 2.868725 5.270646 6.662572 9.81138 12.204813 12.590988 2.93238 1.472556 5.907198 2.754146 9.166342 3.352504 5.372494 0.980289 10.617679 0.700207 15.731308-1.307052 5.448881-2.138813 10.30789-5.045731 13.821655-9.951422 3.017254-4.205483 5.347032-8.733486 6.034508-13.825898 0.831761-6.233961 0.093361-12.353342-2.970574-18.048356-2.317047-4.307332-5.11363-8.296388-9.166341-11.008097-5.291865-3.539226-11.09297-5.945391-17.449998-5.380981z m68.560838-353.620895v-7.75744c0-2.417622 0.038193-4.827182-0.038194-7.244805-0.04668-1.508203-0.772349-1.958881-2.202468-1.577799-1.133062 0.310637-1.871461 1.173801-2.694734 1.935541-5.614384 5.23118-10.401251 11.271205-16.176895 16.339428-1.222179 1.064738-2.1473 2.463879-3.242169 3.68436-0.691719 0.769379-0.793568 1.679223-0.823273 2.642961-0.055168 1.88886 0 3.785359-0.343738 5.666581-0.488023 2.682004-0.190965 3.024044 2.533475 3.031683 6.726227 0.02334 13.448211 0.015702 20.174438 0 2.665029-0.007639 2.788095-0.12434 2.796583-2.759663 0.033949-4.656162 0.016975-9.312324 0.016975-13.960847zM526.546561 83.560974c-7.936524 0-15.873048-0.030979-23.809571 0.007638-5.985281 0.031403-5.371221-0.855101-5.363583 5.651304 0 2.18422 0.248679 2.378581 2.347602 2.464303 0.691719 0.030979 1.383439 0.007639 2.067519 0.007639h48.645264c5.674644 0 6.257301-0.723122 5.4022-6.444023-0.17102-1.166162-0.746038-1.67116-1.86552-1.67116-0.691719 0-1.383439-0.02334-2.067519-0.02334-8.449584 0.007639-16.899169 0.007639-25.356392 0.007639z m-142.119028 30.160233c-4.93582 1.679223-17.505166 11.683266-17.932928 16.798169 5.254945 0 10.501826 0.02334 15.741069-0.007639 2.401921-0.015702 2.596281-0.225764 2.611983-2.720621 0.030979-4.050165 0.02334-8.099905 0-12.149646 0-0.653102 0.201999-1.391502-0.420124-1.920263zM507.338833 1023.868446H214.395298c-1.119482 0-2.246602 0.042437-3.366084-0.038193-1.678798-0.123067-2.129901-0.572896-2.277582-2.198224-0.069596-0.768105-0.038617-1.553186-0.038617-2.334023v-137.02407c0-4.931152 0.101-5.028757 5.122542-5.028757H801.269022c0.691719 0 1.383439-0.025462 2.075158 0.012731 2.160031 0.118823 2.660785 0.632308 2.775364 2.860238 0.038193 0.776593 0.016975 1.557429 0.016975 2.334022v136.51483c0 4.901446 0 4.909934-4.829304 4.909933-97.982247 0-195.968737-0.008487-293.968382-0.008487z" fill="#000000" p-id="4442"></path><path d="M651.293251 603.103678c0.78508 11.241499-10.660115 20.653974-20.632755 20.475739-10.30789-0.186722-20.653974-8.551008-20.403597-20.709141 0.254621-12.32788 9.132392-20.157463 20.39511-20.382379 12.192083-0.24189 21.294769 10.138143 20.641242 20.615781z" fill="#000000" p-id="4443"></path></svg>