<?xml version="1.0" encoding="UTF-8"?>
<svg id="_图层_2" data-name="图层 2" xmlns="http://www.w3.org/2000/svg" width="184.84" height="50" viewBox="0 0 184.84 50">
  <g id="_图层_1-2">
    <g>
      <g>
        <path d="M61.12,10.59l-5.18,2.59s-1.69,5.85-4.28,7.05h-2.26l4.91,9.58s7.96-10.13,6.81-19.23Z"/>
        <path d="M72.7,23.79s-.54-4.41,.84-10.31l2.47-12.9-3.56,2.88h-5.43s.42,30.44-22,37.39l-.9,6.08s17.87-7.05,22.44-15.52c0,0,3.42,9.61,22.11,17.99l-4.46-10.25s-9.22-1.27-11.51-15.37Z"/>
        <path d="M86.5,21.87c-1.81-.66-.3-2.71-.3-2.71,2.83-3.98,1.81-7.66,1.81-7.66-1.45,3.26-5.3,4.46-5.3,4.46-7.6,2.65-7.66,7.35-7.66,7.35-.72,5.67,5.97,5.85,5.97,5.85,9.28-2.11,8.14-8.74,8.14-8.74-1.33,2.11-2.65,1.45-2.65,1.45Z"/>
      </g>
      <g>
        <polygon points="12.49 24.27 5.34 24.27 1.55 33.97 5.26 33.97 12.49 24.27"/>
        <polygon points="21.09 14.86 25.72 12.42 30.36 14.86 29.48 9.7 33.23 6.04 28.04 5.29 25.72 .59 23.41 5.29 18.22 6.04 21.97 9.7 21.09 14.86"/>
        <polygon points="20.08 17.5 15.29 17.49 16.43 10.28 19.78 10.28 14.41 5.04 9.66 5.04 7.01 21.79 19.4 21.79 20.08 17.5"/>
        <polygon points="36.68 10.29 35.54 17.51 31.68 17.5 31 21.79 42.36 21.79 45.57 1.55 42.01 5.04 41.83 5.04 37.03 5.04 31.68 10.29 36.68 10.29"/>
        <polygon points="42.91 30.11 43.6 25.77 28.45 25.77 29.76 17.51 29.76 17.51 29.76 17.5 22 17.5 20.69 25.77 12.73 25.77 10.22 30.11 20.01 30.11 19.54 33.07 9.96 33.07 7.42 37.47 18.84 37.47 18.32 40.78 2.82 40.78 0 45.66 17.54 45.66 25.3 45.66 41.78 45.66 42.94 38.35 40.09 40.78 26.07 40.78 26.6 37.47 39.24 37.47 39.94 33.07 27.29 33.07 27.76 30.11 42.91 30.11"/>
      </g>
      <g>
        <polygon points="129.67 .07 127.24 2.46 127.06 2.46 120.54 2.46 118.82 13.35 127.57 13.35 129.67 .07"/>
        <polygon points="117.17 23.78 113.01 50 125.38 41.86 123.06 41.86 125.92 23.78 117.17 23.78"/>
        <polygon points="137.84 16.06 108.29 16.06 107.5 21.06 137.05 21.06 137.84 16.06"/>
        <circle cx="102.32" cy="8.43" r="4.91"/>
        <polygon points="106.09 16.06 95.1 16.06 91.19 21.43 97.01 21.43 93.24 45.18 103.33 45.18 107.56 40.52 102.21 40.51 106.09 16.06"/>
      </g>
      <g>
        <polygon points="144.6 28.36 151.54 21.67 152 18.92 164.19 17.57 164.84 13.41 152.81 14.08 154.67 2.98 146.77 9.13 146.17 14.45 139.96 14.79 139.12 20.34 145.59 19.62 144.6 28.36"/>
        <polygon points="145.03 31.91 142.19 29.14 133.81 29.14 145.09 39.45 163.48 21.73 155.7 21.73 145.03 31.91"/>
        <path d="M157.87,36.31l-1.75,3.92-3.5-4.46-4.76,4.58c2.35,3.68,7.05,3.56,7.05,3.56,6.87-.72,6.63-7.72,6.63-7.72l-3.68,.12Z"/>
        <circle cx="159.79" cy="7.86" r="4.34"/>
        <polygon points="184.83 .01 182.4 2.4 182.21 2.4 177.88 2.4 172.14 38.7 172.13 38.7 171.82 40.65 165.81 40.64 165.09 45.17 177.68 45.18 184.84 0 184.83 .01"/>
        <polygon points="173.82 6.1 167.92 6.1 163.5 34.01 169.73 31.9 173.82 6.1"/>
      </g>
    </g>
  </g>
</svg>
